<svg id="Layer_1" data-name="Layer 1" xmlns="http://www.w3.org/2000/svg" viewBox="0 0 192.26 258"><defs><style>.cls-1{fill:#cf3f45;}.cls-2,.cls-3,.cls-4,.cls-5{fill:none;stroke:#fff;stroke-miterlimit:10;}.cls-2{stroke-width:4px;}.cls-3,.cls-5{stroke-width:2px;}.cls-4,.cls-5{stroke-linecap:round;}.cls-4{stroke-width:9px;}</style></defs><title>safety net</title><path class="cls-1" d="M287.24,300.73c16.3-27.5,30-57.73,30-81.57,0-58.71-43-95.17-96.13-95.17S125,160.45,125,219.17s83.26,156.23,83.26,156.23c7.11,8.77,18.69,8.81,25.73,0a618.64,618.64,0,0,0,38.75-51.75Z" transform="translate(-125 -124)"/><ellipse class="cls-2" cx="231.03" cy="210.71" rx="15.75" ry="41.01" transform="translate(-206.53 77.91) rotate(-40.75)"/><path class="cls-3" d="M203.27,180.74s-12.79,8.34-23.19,44.11c-5.75,19.77-7.06,52.1,5.2,52.8,11.93.69,11.75-23.71,30.56-23.4,19.13.31,34.53-4.9,39.77-11.23" transform="translate(-125 -124)"/><line class="cls-4" x1="133.42" y1="120.68" x2="170.72" y2="175.31"/><path class="cls-5" d="M177.66,235.29c3.61-14.42,19.66-38.35,25.6-40.43" transform="translate(-125 -124)"/><path class="cls-5" d="M223,254.1c8.38-10.45,15.35-10.42,21.3-12.49" transform="translate(-125 -124)"/><path class="cls-5" d="M198.19,265.76c3.61-14.42,28.68-29.2,34.63-31.28" transform="translate(-125 -124)"/><path class="cls-5" d="M179.5,272.23c3.61-14.42,34-47.83,39.92-49.91" transform="translate(-125 -124)"/><path class="cls-5" d="M175.85,255.33c3.61-14.42,27.55-43.81,33.49-45.89" transform="translate(-125 -124)"/><path class="cls-5" d="M191.91,195.28c-6.47,15.23,31,64.4,45.76,56.71" transform="translate(-125 -124)"/><path class="cls-5" d="M176.44,251.34c3,9.11,7.91,17.06,17,19.72" transform="translate(-125 -124)"/><path class="cls-5" d="M181.93,220.27c-.44,7.61,11.51,35.06,23,37.48" transform="translate(-125 -124)"/></svg>