<svg xmlns="http://www.w3.org/2000/svg" viewBox="0 0 186.47 199.04"><defs><style>.cls-1{isolation:isolate;}.cls-2{opacity:0.4;mix-blend-mode:multiply;}.cls-3{opacity:0;}.cls-4{fill:#010101;opacity:0.01;}.cls-5{fill:#020202;opacity:0.02;}.cls-6{fill:#030303;opacity:0.03;}.cls-7{fill:#040404;opacity:0.04;}.cls-8{fill:#050505;opacity:0.05;}.cls-9{fill:#060606;opacity:0.06;}.cls-10{fill:#070707;opacity:0.07;}.cls-11{fill:#080808;opacity:0.08;}.cls-12{fill:#090909;opacity:0.09;}.cls-13{fill:#0a0a0a;opacity:0.1;}.cls-14{fill:#0b0b0b;opacity:0.11;}.cls-15{fill:#0c0c0c;opacity:0.12;}.cls-16{fill:#0d0d0d;opacity:0.13;}.cls-17{fill:#0e0e0e;opacity:0.14;}.cls-18{fill:#0f0f0f;opacity:0.15;}.cls-19{fill:#101010;opacity:0.16;}.cls-20{fill:#111;opacity:0.17;}.cls-21{fill:#121212;opacity:0.17;}.cls-22{fill:#131313;opacity:0.18;}.cls-23{fill:#141414;opacity:0.19;}.cls-24{fill:#151515;opacity:0.2;}.cls-25{fill:#161616;opacity:0.21;}.cls-26{fill:#171717;opacity:0.22;}.cls-27{fill:#181818;opacity:0.23;}.cls-28{fill:#191919;opacity:0.24;}.cls-29{fill:#1a1a1a;opacity:0.25;}.cls-30{fill:#1b1b1b;opacity:0.26;}.cls-31{fill:#1c1c1c;opacity:0.27;}.cls-32{fill:#1d1d1d;opacity:0.28;}.cls-33{fill:#1e1e1e;opacity:0.29;}.cls-34{fill:#1f1f1f;opacity:0.3;}.cls-35{fill:#202020;opacity:0.31;}.cls-36{fill:#212121;opacity:0.32;}.cls-37{fill:#222;opacity:0.33;}.cls-38{fill:#232323;opacity:0.34;}.cls-39{fill:#242424;opacity:0.35;}.cls-40{fill:#252525;opacity:0.36;}.cls-41{fill:#262626;opacity:0.37;}.cls-42{fill:#272727;opacity:0.38;}.cls-43{fill:#282828;opacity:0.39;}.cls-44{fill:#292929;opacity:0.4;}.cls-45{fill:#2a2a2a;opacity:0.41;}.cls-46{fill:#2b2b2b;opacity:0.42;}.cls-47{fill:#2c2c2c;opacity:0.43;}.cls-48{fill:#2d2d2d;opacity:0.44;}.cls-49{fill:#2e2e2e;opacity:0.45;}.cls-50{fill:#2f2f2f;opacity:0.46;}.cls-51{fill:#303030;opacity:0.47;}.cls-52{fill:#313131;opacity:0.48;}.cls-53{fill:#323232;opacity:0.49;}.cls-54,.cls-55{fill:#333;}.cls-54{opacity:0.5;}.cls-55{opacity:0.5;}.cls-56{fill:#343434;opacity:0.51;}.cls-57{fill:#353535;opacity:0.52;}.cls-58{fill:#363636;opacity:0.53;}.cls-59{fill:#373737;opacity:0.54;}.cls-60{fill:#383838;opacity:0.55;}.cls-61{fill:#393939;opacity:0.56;}.cls-62{fill:#3a3a3a;opacity:0.57;}.cls-63{fill:#3b3b3b;opacity:0.58;}.cls-64{fill:#3c3c3c;opacity:0.59;}.cls-65{fill:#3d3d3d;opacity:0.6;}.cls-66{fill:#3e3e3e;opacity:0.61;}.cls-67{fill:#3f3f3f;opacity:0.62;}.cls-68{fill:#404040;opacity:0.63;}.cls-69{fill:#414141;opacity:0.64;}.cls-70{fill:#424242;opacity:0.65;}.cls-71{fill:#434343;opacity:0.66;}.cls-72{fill:#444;opacity:0.67;}.cls-73{fill:#454545;opacity:0.68;}.cls-74{fill:#464646;opacity:0.69;}.cls-75{fill:#474747;opacity:0.7;}.cls-76{fill:#484848;opacity:0.71;}.cls-77{fill:#494949;opacity:0.72;}.cls-78{fill:#4a4a4a;opacity:0.73;}.cls-79{fill:#4b4b4b;opacity:0.74;}.cls-80{fill:#4c4c4c;opacity:0.75;}.cls-81{fill:#4d4d4d;opacity:0.76;}.cls-82{fill:#4e4e4e;opacity:0.77;}.cls-83{fill:#4f4f4f;opacity:0.78;}.cls-84{fill:#505050;opacity:0.79;}.cls-85{fill:#515151;opacity:0.8;}.cls-86{fill:#525252;opacity:0.81;}.cls-87{fill:#535353;opacity:0.82;}.cls-88{fill:#545454;opacity:0.83;}.cls-89{fill:#555;opacity:0.83;}.cls-90{fill:#565656;opacity:0.84;}.cls-91{fill:#575757;opacity:0.85;}.cls-92{fill:#585858;opacity:0.86;}.cls-93{fill:#595959;opacity:0.87;}.cls-94{fill:#5a5a5a;opacity:0.88;}.cls-95{fill:#5b5b5b;opacity:0.89;}.cls-96{fill:#5c5c5c;opacity:0.9;}.cls-97{fill:#5d5d5d;opacity:0.91;}.cls-98{fill:#5e5e5e;opacity:0.92;}.cls-99{fill:#5f5f5f;opacity:0.93;}.cls-100{fill:#606060;opacity:0.94;}.cls-101{fill:#616161;opacity:0.95;}.cls-102{fill:#626262;opacity:0.96;}.cls-103{fill:#636363;opacity:0.97;}.cls-104{fill:#646464;opacity:0.98;}.cls-105{fill:#656565;opacity:0.99;}.cls-106{fill:#666;}</style></defs><title>shadowAsset 2</title><g class="cls-1"><g id="Layer_2" data-name="Layer 2"><g id="Layer_2-2" data-name="Layer 2"><g class="cls-2"><path class="cls-3" d="M14.59,198.59S123.93,165.5,159,132.52c31.22-29.39,37-74.36,11.49-99.54S90.19-24.87,41.52,29.57c-28,31.31-36.89,117.5-39,134C.92,175.69-6.33,202.87,14.59,198.59Z"/><path class="cls-4" d="M169.36,34.07c-25.3-25-79.63-57.36-127.94-3.35-27.79,31.07-36.67,116.63-38.8,133-1.56,12-8.77,39,12,34.73,0,0,108.56-32.84,143.33-65.59C188.95,103.67,194.66,59.07,169.36,34.07Z"/><path class="cls-5" d="M168.26,35.16c-25.12-24.81-79-56.86-126.94-3.29C13.72,62.7,4.87,147.63,2.76,163.9,1.21,175.81-6,202.58,14.66,198.36c0,0,107.78-32.58,142.28-65.11C187.71,104.22,193.38,60,168.26,35.16Z"/><path class="cls-6" d="M167.16,36.24C142.23,11.61,88.8-20.11,41.22,33,13.81,63.61,5,147.91,2.89,164c-1.54,11.82-8.67,38.39,11.8,34.2,0,0,107-32.33,141.23-64.63C186.47,104.76,192.1,60.87,167.16,36.24Z"/><path class="cls-7" d="M166.07,37.33C141.32,12.88,88.34-18.52,41.12,34.17c-27.22,30.35-36,114-38.09,130-1.54,11.73-8.61,38.09,11.7,33.93,0,0,106.23-32.07,140.18-64.15C185.23,105.31,190.81,61.78,166.07,37.33Z"/><path class="cls-8" d="M165,38.42C140.41,14.15,87.87-16.94,41,35.32,14,65.43,5.24,148.47,3.16,164.34,1.64,176-5.4,202.13,14.77,198c0,0,105.45-31.82,139.13-63.67C184,105.85,189.53,62.68,165,38.42Z"/><path class="cls-9" d="M163.87,39.5c-24.38-24.08-76.46-54.85-123-3C14.09,66.34,5.36,148.75,3.3,164.49,1.78,176-5.21,202,14.81,197.89c0,0,104.67-31.57,138.08-63.19C182.75,106.4,188.25,63.59,163.87,39.5Z"/><path class="cls-10" d="M162.78,40.59c-24.19-23.9-75.83-54.35-122-3C14.19,67.25,5.49,149,3.44,164.63,1.92,176.1-5,201.84,14.84,197.77c0,0,103.89-31.31,137-62.71C181.51,106.94,187,64.49,162.78,40.59Z"/><path class="cls-11" d="M161.68,41.68c-24-23.72-75.19-53.85-121-2.91C14.28,68.16,5.61,149.3,3.57,164.78c-1.51,11.38-8.41,36.91,11.3,32.88,0,0,103.11-31.06,136-62.23C180.27,107.49,185.68,65.39,161.68,41.68Z"/><path class="cls-12" d="M160.58,42.76C136.76,19.23,86-10.59,40.62,39.91,14.37,69.07,5.73,149.58,3.71,164.93c-1.5,11.29-8.35,36.62,11.2,32.61,0,0,102.33-30.8,134.93-61.75C179,108,184.4,66.3,160.58,42.76Z"/><path class="cls-13" d="M159.48,43.85C135.85,20.5,85.56-9,40.52,41.06,14.46,70,5.85,149.86,3.84,165.07c-1.49,11.2-8.3,36.32,11.1,32.35,0,0,101.55-30.55,133.88-61.27C177.79,108.58,183.12,67.2,159.48,43.85Z"/><path class="cls-14" d="M158.39,44.94c-23.45-23.17-73.29-52.35-118-2.73C14.56,70.89,6,150.14,4,165.22c-1.48,11.11-8.25,36,11,32.09,0,0,100.78-30.29,132.83-60.79C176.55,109.12,181.84,68.1,158.39,44.94Z"/><path class="cls-15" d="M157.29,46C134,23,84.63-5.83,40.32,43.36,14.65,71.8,6.1,150.42,4.11,165.37c-1.48,11-8.2,35.73,10.9,31.82,0,0,100-30,131.78-60.31C175.31,109.67,180.56,69,157.29,46Z"/><path class="cls-16" d="M156.19,47.11c-23.08-22.8-72-51.35-116-2.6-25.48,28.21-34,106.19-36,121C2.78,176.45-3.9,201,15.05,197.07c0,0,99.22-29.78,130.73-59.83C174.07,110.21,179.27,69.91,156.19,47.11Z"/><path class="cls-17" d="M155.1,48.2c-22.89-22.62-71.39-50.85-115-2.54C14.84,73.63,6.35,151,4.39,165.66,2.92,176.51-3.71,200.8,15.09,197c0,0,98.44-29.53,129.69-59.35C172.83,110.76,178,70.82,155.1,48.2Z"/><path class="cls-18" d="M154,49.29C131.29,26.85,83.24-1.07,40,46.81c-25.09,27.73-33.56,104.45-35.5,119-1.45,10.76-8,34.84,10.6,31,0,0,97.66-29.28,128.64-58.87C171.59,111.3,176.71,71.72,154,49.29Z"/><path class="cls-19" d="M152.9,50.37C130.38,28.12,82.78.52,39.92,48,15,75.45,6.59,151.54,4.66,166c-1.45,10.67-8,34.55,10.5,30.76,0,0,96.88-29,127.59-58.39C170.35,111.85,175.43,72.62,152.9,50.37Z"/><path class="cls-20" d="M151.81,51.46c-22.34-22.07-69.49-49.35-112-2.35-24.71,27.25-33.11,102.71-35,117-1.44,10.58-7.94,34.25,10.4,30.5,0,0,96.1-28.77,126.54-57.91C169.11,112.39,174.14,73.53,151.81,51.46Z"/><path class="cls-21" d="M150.71,52.55c-22.15-21.89-68.85-48.85-111-2.29-24.52,27-32.89,101.84-34.8,116-1.43,10.49-7.89,34,10.3,30.24,0,0,95.32-28.51,125.49-57.43C167.87,112.94,172.86,74.43,150.71,52.55Z"/><path class="cls-22" d="M149.61,53.63c-22-21.7-68.22-48.35-110-2.23C15.3,78.18,7,152.38,5.06,166.4c-1.42,10.41-7.83,33.66,10.2,30,0,0,94.54-28.26,124.44-56.95C166.63,113.48,171.58,75.33,149.61,53.63Z"/><path class="cls-23" d="M148.51,54.72c-21.78-21.52-67.58-47.85-109-2.16C15.39,79.09,7.08,152.65,5.2,166.55c-1.42,10.32-7.78,33.37,10.1,29.71,0,0,93.77-28,123.39-56.47C165.39,114,170.3,76.24,148.51,54.72Z"/><path class="cls-24" d="M147.42,55.81c-21.6-21.34-67-47.35-108-2.1C15.49,80,7.2,152.93,5.34,166.7c-1.41,10.23-7.73,33.07,10,29.44,0,0,93-27.75,122.34-56C164.15,114.58,169,77.14,147.42,55.81Z"/><path class="cls-25" d="M146.32,56.89C124.91,35.74,80,10,39.33,54.85c-23.75,26.06-32,98.36-33.85,112C4.07,177-2.21,199.62,15.37,196c0,0,92.21-27.49,121.29-55.51C162.91,115.12,167.73,78,146.32,56.89Z"/><path class="cls-26" d="M145.22,58C124,37,79.54,11.63,39.23,56,15.67,81.82,7.45,153.49,5.61,167,4.21,177-2,199.47,15.41,195.91c0,0,91.43-27.24,120.24-55C161.67,115.67,166.45,78.95,145.22,58Z"/><path class="cls-27" d="M144.13,59.07c-21-20.79-65-45.85-105-1.91-23.36,25.58-31.55,96.62-33.38,110-1.39,10-7.57,32.19,9.7,28.65,0,0,90.65-27,119.19-54.55C160.43,116.21,165.17,79.85,144.13,59.07Z"/><path class="cls-28" d="M143,60.15C122.17,39.55,78.62,14.81,39,58.3c-23.17,25.34-31.33,95.75-33.15,109-1.38,9.87-7.52,31.89,9.6,28.39,0,0,89.87-26.73,118.14-54.07C159.19,116.76,163.89,80.76,143,60.15Z"/><path class="cls-29" d="M141.93,61.24c-20.67-20.42-63.78-44.85-103-1.79C16,84.56,7.82,154.33,6,167.43c-1.37,9.78-7.47,31.59,9.5,28.12,0,0,89.09-26.48,117.1-53.59C157.95,117.3,162.6,81.66,141.93,61.24Z"/><path class="cls-30" d="M140.83,62.33C120.35,42.09,77.69,18,38.83,60.6c-22.78,24.87-30.89,94-32.68,107-1.36,9.7-7.42,31.3,9.4,27.86,0,0,88.31-26.22,116-53.11C156.71,117.85,161.32,82.57,140.83,62.33Z"/><path class="cls-31" d="M139.74,63.41c-20.3-20.06-62.51-43.84-101-1.66-22.59,24.63-30.67,93.14-32.44,106-1.36,9.61-7.37,31,9.3,27.59,0,0,87.53-26,115-52.63C155.46,118.39,160,83.47,139.74,63.41Z"/><path class="cls-32" d="M138.64,64.5c-20.12-19.87-61.88-43.34-100-1.6-22.4,24.39-30.44,92.27-32.21,105-1.35,9.52-7.31,30.71,9.2,27.33,0,0,86.76-25.71,113.95-52.15C154.22,118.94,158.76,84.37,138.64,64.5Z"/><path class="cls-33" d="M137.54,65.59C117.61,45.9,76.3,22.74,38.53,64c-22.2,24.15-30.22,91.4-32,104-1.34,9.43-7.26,30.41,9.1,27.07,0,0,86-25.46,112.9-51.67C153,119.48,157.47,85.28,137.54,65.59Z"/><path class="cls-34" d="M136.45,66.67c-19.75-19.51-60.61-42.34-98-1.48-22,23.91-30,90.53-31.73,103-1.33,9.34-7.21,30.12,9,26.8,0,0,85.2-25.2,111.85-51.19C151.74,120,156.19,86.18,136.45,66.67Z"/><path class="cls-35" d="M135.35,67.76c-19.56-19.32-60-41.84-97-1.41C16.51,90,8.55,156,6.83,168.32c-1.33,9.25-7.16,29.82,8.9,26.54,0,0,84.42-25,110.8-50.71C150.5,120.57,154.91,87.08,135.35,67.76Z"/><path class="cls-36" d="M134.25,68.85c-19.37-19.14-59.34-41.34-96-1.35C16.6,90.93,8.68,156.28,7,168.47c-1.32,9.16-7.11,29.53,8.8,26.27,0,0,83.64-24.7,109.75-50.23C149.26,121.12,153.63,88,134.25,68.85Z"/><path class="cls-37" d="M133.16,69.93c-19.19-19-58.71-40.84-95-1.29-21.43,23.2-29.33,87.92-31,100-1.31,9.08-7.05,29.23,8.7,26,0,0,82.86-24.44,108.7-49.75C148,121.66,152.35,88.89,133.16,69.93Z"/><path class="cls-38" d="M132.06,71c-19-18.78-58.07-40.34-94-1.23-21.24,23-29.11,87-30.79,99-1.3,9-7,28.94,8.6,25.74,0,0,82.13-24.14,107.65-49.27C146.83,122.25,151.06,89.8,132.06,71Z"/><path class="cls-39" d="M131,72.11c-18.82-18.59-57.44-39.84-93-1.16-21,22.72-28.89,86.18-30.56,98-1.3,8.9-7,28.64,8.5,25.48,0,0,81.36-23.88,106.6-48.79C145.59,122.8,149.78,90.7,131,72.11Z"/><path class="cls-40" d="M129.86,73.19c-18.63-18.41-56.8-39.34-92-1.1C17,94.57,9.19,157.41,7.51,169.06c-1.27,8.81-6.9,28.35,8.4,25.22,0,0,80.58-23.62,105.55-48.31C144.35,123.35,148.5,91.6,129.86,73.19Z"/><path class="cls-41" d="M128.77,74.28c-18.45-18.23-56.17-38.84-91-1-20.66,22.24-28.42,84.44-30.09,96-1.26,8.72-6.85,28.05,8.3,25,0,0,79.8-23.37,104.51-47.83C143.11,123.89,147.22,92.51,128.77,74.28Z"/><path class="cls-42" d="M127.67,75.37c-18.26-18-55.54-38.34-90-1-20.47,22-28.19,83.57-29.85,95C6.52,178,1,197.11,16,194c0,0,79-23.11,103.46-47.35C141.88,124.44,145.93,93.41,127.67,75.37Z"/><path class="cls-43" d="M126.57,76.45c-18.08-17.86-54.9-37.84-89-.91-20.28,21.77-28,82.7-29.62,94C6.67,178,1.17,197,16,193.92c0,0,78.24-22.86,102.41-46.87C140.64,125,144.65,94.31,126.57,76.45Z"/><path class="cls-44" d="M125.48,77.54c-17.89-17.68-54.27-37.34-88-.85-20.08,21.53-27.75,81.83-29.38,93-1.24,8.46-6.69,27.17,8,24.16,0,0,77.47-22.6,101.36-46.39C139.4,125.53,143.37,95.22,125.48,77.54Z"/><path class="cls-45" d="M124.38,78.63c-17.71-17.49-53.63-36.84-87-.79-19.89,21.29-27.53,81-29.14,92-1.23,8.37-6.64,26.87,7.9,23.89,0,0,76.69-22.35,100.31-45.91C138.16,126.08,142.09,96.12,124.38,78.63Z"/><path class="cls-46" d="M123.28,79.71C105.76,62.4,70.36,43.44,37.23,79c-19.65,21.09-27.3,80.09-28.91,91-1.23,8.28-6.59,26.57,7.8,23.63,0,0,75.91-22.09,99.26-45.43C136.92,126.62,140.8,97,123.28,79.71Z"/><path class="cls-47" d="M122.18,80.8C104.85,63.67,69.89,45,37.13,80.14c-19.46,20.85-27.08,79.22-28.67,90-1.22,8.19-6.53,26.28,7.7,23.37,0,0,75.13-21.84,98.21-44.95C135.68,127.17,139.52,97.93,122.18,80.8Z"/><path class="cls-48" d="M121.09,81.89C103.94,64.94,69.43,46.62,37,81.29c-19.27,20.61-26.86,78.35-28.44,89-1.21,8.1-6.48,26,7.6,23.1,0,0,74.36-21.58,97.16-44.47C134.44,127.72,138.24,98.83,121.09,81.89Z"/><path class="cls-49" d="M120,83c-17-16.76-51-34.77-83.06-.54-19.07,20.38-26.63,77.48-28.2,87.95-1.2,8-6.43,25.69,7.5,22.84,0,0,73.58-21.33,96.11-44C133.2,128.26,137,99.74,120,83Z"/><path class="cls-50" d="M118.89,84.06c-16.78-16.58-50.39-34.26-82.06-.48C18,103.72,10.42,160.2,8.86,170.53c-1.19,7.93-6.38,25.39,7.4,22.57,0,0,72.8-21.07,95.06-43.5C132,128.81,135.68,100.64,118.89,84.06Z"/><path class="cls-51" d="M117.8,85.15C101.2,68.75,68,51.38,36.73,84.73,18,104.64,10.54,160.48,9,170.68c-1.19,7.84-6.33,25.1,7.3,22.31,0,0,72-20.82,94-43C130.72,129.35,134.39,101.54,117.8,85.15Z"/><path class="cls-52" d="M116.7,86.23C100.29,70,67.58,53,36.63,85.88c-18.49,19.66-26,74.87-27.5,84.94-1.18,7.75-6.27,24.8,7.2,22,0,0,71.24-20.56,93-42.54C129.48,129.9,133.11,102.45,116.7,86.23Z"/><path class="cls-53" d="M115.6,87.32c-16.23-16-48.48-32.76-79.07-.29C18.23,106.46,10.79,161,9.27,171c-1.17,7.66-6.22,24.51,7.1,21.78,0,0,70.47-20.3,91.92-42.06C128.25,130.45,131.83,103.35,115.6,87.32Z"/><path class="cls-54" d="M114.51,88.41c-16-15.85-47.84-32.26-78.07-.23-18.11,19.19-25.52,73.13-27,82.94-1.16,7.57-6.17,24.21,7,21.52,0,0,69.69-20,90.87-41.58C127,131,130.55,104.26,114.51,88.41Z"/><path class="cls-55" d="M113.41,89.5C97.55,73.83,66.2,57.74,36.33,89.33,18.42,108.28,11,161.59,9.54,171.27c-1.15,7.48-6.12,23.92,6.9,21.25,0,0,68.91-19.79,89.82-41.1C125.77,131.54,129.26,105.16,113.41,89.5Z"/><path class="cls-56" d="M112.31,90.58c-15.67-15.48-46.57-31.26-76.08-.1-17.72,18.71-25.07,71.39-26.55,80.94-1.15,7.4-6.07,23.62,6.8,21,0,0,68.13-19.54,88.77-40.62C124.53,132.08,128,106.06,112.31,90.58Z"/><path class="cls-57" d="M111.21,91.67c-15.49-15.3-45.94-30.75-75.08,0C18.61,110.1,11.28,162.15,9.81,171.56c-1.14,7.31-6,23.33,6.7,20.72,0,0,67.35-19.28,87.72-40.14C123.29,132.63,126.7,107,111.21,91.67Z"/><path class="cls-58" d="M110.12,92.76C94.82,77.64,64.81,62.5,36,92.78,18.7,111,11.4,162.43,9.95,171.71c-1.13,7.22-6,23,6.6,20.46,0,0,66.57-19,86.67-39.66C122,133.17,125.42,107.87,110.12,92.76Z"/><path class="cls-59" d="M109,93.84c-15.12-14.93-44.67-29.75-73.09.09-17.14,18-24.41,68.78-25.85,77.93C9,179,4.17,194.59,16.59,192.06c0,0,65.8-18.77,85.62-39.18C120.81,133.72,124.14,108.77,109,93.84Z"/><path class="cls-60" d="M107.92,94.93c-14.93-14.75-44-29.25-72.09.15C18.89,112.84,11.65,163,10.22,172c-1.12,7-5.86,22.44,6.4,19.93,0,0,65-18.52,84.57-38.7C119.57,134.27,122.85,109.68,107.92,94.93Z"/><path class="cls-61" d="M106.83,96c-14.74-14.57-43.4-28.75-71.09.21-16.75,17.52-24,67-25.38,75.93-1.11,7-5.81,22.14,6.3,19.67,0,0,64.24-18.27,83.52-38.22C118.33,134.81,121.57,110.58,106.83,96Z"/><path class="cls-62" d="M105.73,97.1C91.17,82.72,63,68.85,35.63,97.38,19.07,114.66,11.9,163.55,10.49,172.3c-1.1,6.86-5.75,21.85,6.2,19.4,0,0,63.46-18,82.47-37.74C117.09,135.36,120.29,111.49,105.73,97.1Z"/><path class="cls-63" d="M104.63,98.19C90.26,84,62.5,70.44,35.53,98.53c-16.37,17-23.52,65.3-24.91,73.92-1.09,6.78-5.7,21.55,6.1,19.14,0,0,62.68-17.76,81.42-37.26C115.85,135.9,119,112.39,104.63,98.19Z"/><path class="cls-64" d="M103.53,99.28c-14.19-14-41.5-27.25-68.1.4-16.17,16.81-23.29,64.43-24.67,72.92-1.09,6.69-5.65,21.26,6,18.87,0,0,61.9-17.5,80.37-36.78C114.61,136.45,117.72,113.29,103.53,99.28Z"/><path class="cls-65" d="M102.44,100.36c-14-13.83-40.86-26.75-67.1.46-16,16.57-23.07,63.56-24.44,71.92-1.08,6.6-5.6,21,5.9,18.61,0,0,61.13-17.25,79.33-36.3C113.37,137,116.44,114.2,102.44,100.36Z"/><path class="cls-66" d="M101.34,101.45C87.52,87.8,61.11,75.2,35.24,102,19.45,118.31,12.39,164.67,11,172.89c-1.07,6.51-5.55,20.67,5.8,18.35,0,0,60.35-17,78.28-35.82C112.13,137.54,115.16,115.1,101.34,101.45Z"/><path class="cls-67" d="M100.24,102.54c-13.63-13.47-39.59-25.74-65.11.59-15.6,16.09-22.63,61.82-24,69.92-1.06,6.42-5.49,20.37,5.7,18.08,0,0,59.57-16.74,77.23-35.34C110.89,138.08,113.88,116,100.24,102.54Z"/><path class="cls-68" d="M99.15,103.62c-13.45-13.29-39-25.24-64.11.65-15.4,15.86-22.4,61-23.73,68.92-1.05,6.33-5.44,20.08,5.6,17.82,0,0,58.79-16.48,76.18-34.86C109.65,138.63,112.59,116.91,99.15,103.62Z"/><path class="cls-69" d="M98,104.71c-13.26-13.1-38.32-24.74-63.11.71C19.73,121,12.76,165.51,11.44,173.33c-1,6.24-5.39,19.78,5.5,17.55,0,0,58-16.23,75.13-34.38C108.41,139.17,111.31,117.81,98,104.71Z"/><path class="cls-70" d="M97,105.8c-13.08-12.92-37.69-24.24-62.12.77-15,15.38-22,59.21-23.26,66.91-1,6.16-5.34,19.49,5.4,17.29,0,0,57.23-16,74.08-33.9C107.17,139.72,110,118.72,97,105.8Z"/><path class="cls-71" d="M95.86,106.88C83,94.15,58.8,83.14,34.74,107.72c-14.82,15.14-21.74,58.34-23,65.91-1,6.07-5.29,19.19,5.3,17,0,0,56.45-15.72,73-33.42C105.93,140.26,108.75,119.62,95.86,106.88Z"/><path class="cls-72" d="M94.76,108c-12.71-12.55-36.42-23.24-60.12.9C20,123.77,13.12,166.34,11.85,173.78c-1,6-5.23,18.9,5.2,16.76,0,0,55.67-15.47,72-32.94C104.69,140.81,107.47,120.52,94.76,108Z"/><path class="cls-73" d="M93.66,109.06c-12.52-12.37-35.79-22.74-59.12,1C20.1,124.68,13.25,166.62,12,173.92c-1,5.89-5.18,18.6,5.1,16.5,0,0,54.9-15.21,70.93-32.46C103.45,141.35,106.18,121.43,93.66,109.06Z"/><path class="cls-74" d="M92.56,110.14C80.23,98,57.41,87.9,34.44,111.17c-14.25,14.43-21.07,55.73-22.32,62.9-1,5.8-5.13,18.31,5,16.23,0,0,54.12-15,69.88-32C102.21,141.9,104.9,122.33,92.56,110.14Z"/><path class="cls-75" d="M91.47,111.23c-12.15-12-34.52-21.74-57.13,1.09-14.05,14.19-20.85,54.86-22.08,61.9-1,5.71-5.08,18,4.9,16,0,0,53.34-14.7,68.83-31.5C101,142.44,103.62,123.24,91.47,111.23Z"/><path class="cls-76" d="M90.37,112.32c-12-11.82-33.89-21.24-56.13,1.15-13.86,13.95-20.62,54-21.84,60.9-1,5.62-5,17.71,4.8,15.7,0,0,52.56-14.45,67.78-31C99.73,143,102.34,124.14,90.37,112.32Z"/><path class="cls-77" d="M89.27,113.4C77.49,101.77,56,92.67,34.14,114.62c-13.67,13.71-20.4,53.12-21.61,59.9-1,5.54-5,17.42,4.7,15.44,0,0,51.78-14.2,66.74-30.54C98.49,143.53,101.05,125,89.27,113.4Z"/><path class="cls-78" d="M88.18,114.49C76.58,103,55.56,94.25,34,115.76,20.56,129.24,13.86,168,12.66,174.66c-1,5.45-4.92,17.12,4.6,15.18,0,0,51-13.94,65.69-30.06C97.25,144.08,99.77,125.95,88.18,114.49Z"/><path class="cls-79" d="M87.08,115.58c-11.41-11.27-32-19.74-53.14,1.34-13.28,13.23-20,51.38-21.14,57.9-1,5.36-4.87,16.83,4.5,14.91,0,0,50.22-13.69,64.64-29.58C96,144.62,98.49,126.85,87.08,115.58Z"/><path class="cls-80" d="M86,116.66c-11.23-11.09-31.35-19.24-52.14,1.4-13.09,13-19.73,50.51-20.9,56.89-1,5.27-4.82,16.53,4.4,14.65,0,0,49.44-13.44,63.59-29.1C94.77,145.17,97.21,127.75,86,116.66Z"/><path class="cls-81" d="M84.88,117.75c-11-10.91-30.72-18.74-51.15,1.46C20.84,132,14.23,168.86,13.07,175.1c-1,5.18-4.77,16.24,4.3,14.38,0,0,48.66-13.18,62.54-28.62C93.53,145.71,95.92,128.66,84.88,117.75Z"/><path class="cls-82" d="M83.79,118.84c-10.86-10.72-30.09-18.24-50.15,1.52-12.71,12.52-19.29,48.77-20.43,54.89-1,5.09-4.72,15.94,4.2,14.12,0,0,47.88-12.93,61.49-28.14C92.29,146.26,94.64,129.56,83.79,118.84Z"/><path class="cls-83" d="M82.69,119.92C72,109.38,53.24,102.18,33.54,121.51,21,133.79,14.47,169.41,13.34,175.4c-.94,5-4.66,15.65,4.1,13.85,0,0,47.1-12.68,60.44-27.66C91,146.8,93.36,130.47,82.69,119.92Z"/><path class="cls-84" d="M81.59,121c-10.48-10.36-28.82-17.24-48.15,1.65-12.32,12-18.85,47-20,52.89-.94,4.92-4.61,15.35,4,13.59,0,0,46.32-12.42,59.39-27.18S92.08,131.37,81.59,121Z"/><path class="cls-85" d="M80.5,122.1c-10.3-10.18-28.19-16.74-47.16,1.71C21.21,135.61,14.71,170,13.61,175.69c-.93,4.83-4.56,15.06,3.9,13.33,0,0,45.54-12.17,58.34-26.7S90.8,132.27,80.5,122.1Z"/><path class="cls-86" d="M79.4,123.18c-10.11-10-27.56-16.24-46.16,1.77-11.94,11.56-18.4,45.29-19.49,50.88-.92,4.74-4.51,14.76,3.8,13.06,0,0,44.76-11.92,57.29-26.22S89.51,133.18,79.4,123.18Z"/><path class="cls-87" d="M78.3,124.27c-9.93-9.81-26.92-15.74-45.16,1.84C21.39,137.43,15,170.53,13.89,176c-.91,4.65-4.46,14.47,3.7,12.8,0,0,44-11.66,56.24-25.74S88.23,134.08,78.3,124.27Z"/><path class="cls-88" d="M77.21,125.36c-9.74-9.63-26.29-15.24-44.17,1.9-11.55,11.08-18,43.55-19,48.88-.91,4.56-4.4,14.17,3.6,12.53,0,0,43.2-11.41,55.19-25.26S86.95,135,77.21,125.36Z"/><path class="cls-89" d="M76.11,126.45c-9.56-9.44-25.66-14.75-43.17,2-11.36,10.84-17.74,42.68-18.78,47.88-.9,4.47-4.35,13.88,3.5,12.27,0,0,42.42-11.16,54.15-24.78S85.67,135.89,76.11,126.45Z"/><path class="cls-90" d="M75,127.53c-9.37-9.26-25-14.25-42.17,2-11.17,10.6-17.52,41.81-18.55,46.88-.89,4.38-4.3,13.58,3.4,12,0,0,41.64-10.91,53.1-24.3S84.38,136.79,75,127.53Z"/><path class="cls-91" d="M73.91,128.62c-9.19-9.08-24.4-13.75-41.17,2.09-11,10.36-17.29,40.94-18.31,45.87-.89,4.29-4.25,13.28,3.3,11.74,0,0,40.86-10.65,52-23.82C81.12,151.15,83.1,137.7,73.91,128.62Z"/><path class="cls-92" d="M72.82,129.71c-9-8.89-23.76-13.25-40.18,2.15C21.85,142,15.57,171.93,14.56,176.73c-.88,4.21-4.2,13,3.2,11.48,0,0,40.08-10.4,51-23.34C79.88,151.69,81.82,138.6,72.82,129.71Z"/><path class="cls-93" d="M71.72,130.79C62.9,122.08,48.59,118,32.54,133c-10.6,9.88-16.85,39.2-17.84,43.87-.87,4.12-4.14,12.69,3.1,11.21,0,0,39.3-10.15,49.95-22.86C78.63,152.24,80.54,139.5,71.72,130.79Z"/><path class="cls-94" d="M70.62,131.88c-8.63-8.53-22.5-12.26-38.18,2.27C22,143.8,15.81,172.49,14.84,177c-.87,4-4.09,12.4,3,10.95,0,0,38.52-9.9,48.9-22.38C77.39,152.78,79.26,140.41,70.62,131.88Z"/><path class="cls-95" d="M69.53,133c-8.45-8.35-21.87-11.76-37.18,2.34C22.13,144.7,15.93,172.76,15,177.17c-.86,3.94-4,12.1,2.9,10.68,0,0,37.73-9.64,47.85-21.9C76.15,153.32,78,141.31,69.53,133Z"/><path class="cls-96" d="M68.43,134.05c-8.26-8.16-21.24-11.26-36.19,2.4-10,9.16-16.19,36.59-17.14,40.87-.85,3.85-4,11.81,2.8,10.42,0,0,37-9.39,46.8-21.42C74.91,153.86,76.69,142.21,68.43,134.05Z"/><path class="cls-97" d="M67.33,135.14c-8.08-8-20.61-10.76-35.19,2.46-9.83,8.92-16,35.72-16.9,39.86-.85,3.76-3.94,11.51,2.7,10.16,0,0,36.17-9.14,45.75-20.94C73.66,154.41,75.41,143.12,67.33,135.14Z"/><path class="cls-98" d="M66.23,136.23c-7.89-7.8-20-10.27-34.19,2.52-9.64,8.68-15.75,34.85-16.66,38.86-.84,3.67-3.88,11.22,2.6,9.89,0,0,35.39-8.89,44.7-20.46C72.42,154.95,74.13,144,66.23,136.23Z"/><path class="cls-99" d="M65.14,137.31c-7.71-7.61-19.35-9.77-33.2,2.59-9.45,8.44-15.52,34-16.43,37.86-.84,3.58-3.83,10.92,2.5,9.63,0,0,34.6-8.64,43.65-20C71.17,155.49,72.84,144.93,65.14,137.31Z"/><path class="cls-100" d="M64,138.4c-7.52-7.43-18.72-9.28-32.2,2.65-9.26,8.2-15.3,33.11-16.19,36.86-.83,3.5-3.78,10.63,2.4,9.36,0,0,33.82-8.39,42.6-19.5C69.93,156,71.56,145.83,64,138.4Z"/><path class="cls-101" d="M62.94,139.49c-7.34-7.25-18.09-8.78-31.2,2.71-9.07,8-15.08,32.24-16,35.86-.82,3.41-3.73,10.33,2.3,9.1,0,0,33-8.14,41.56-19C68.69,156.57,70.28,146.73,62.94,139.49Z"/><path class="cls-102" d="M61.85,140.57c-7.15-7.06-17.46-8.29-30.2,2.77-8.89,7.71-14.86,31.37-15.72,34.85-.82,3.32-3.68,10,2.2,8.83,0,0,32.26-7.89,40.51-18.54C67.44,157.12,69,147.64,61.85,140.57Z"/><path class="cls-103" d="M60.75,141.66c-7-6.88-16.85-7.81-29.21,2.84C22.83,152,16.9,175,16.06,178.35s-3.62,9.74,2.1,8.57c0,0,31.45-7.65,39.46-18.06C66.18,157.64,67.71,148.54,60.75,141.66Z"/><path class="cls-104" d="M59.65,142.75c-6.78-6.7-16.22-7.31-28.21,2.9C22.93,152.86,17,175.27,16.19,178.5s-3.57,9.45,2,8.31c0,0,30.68-7.39,38.41-17.58C64.94,158.19,66.43,149.44,59.65,142.75Z"/><path class="cls-105" d="M58.56,143.83C52,137.32,43,137,31.34,146.8c-8.32,7-14.21,28.76-15,31.85s-3.52,9.15,1.9,8c0,0,29.9-7.14,37.36-17.1C63.7,158.73,65.15,150.35,58.56,143.83Z"/><path class="cls-106" d="M18.26,186.57S47.38,179.68,54.57,170c7.89-10.68,9.3-18.7,2.89-25s-14.95-6.31-26.21,3c-8.13,6.74-14,27.89-14.78,30.85S13,187.65,18.26,186.57Z"/></g></g></g></g></svg>